<svg width="25" height="24" viewBox="0 0 25 24" fill="none" xmlns="http://www.w3.org/2000/svg">
    <path d="M17.136 20c-6.788 0-12.45-5.521-12.591-12.31v-.62A3.373 3.373 0 0 1 7.925 4c.225 0 .45.028.676.056.226.056.45.113.648.197.338.141.563.451.62.817l.62 3.944c.056.366-.057.732-.339.958-.281.253-.62.45-.957.591a8.588 8.588 0 0 0 4.76 4.76c.14-.337.338-.675.592-.957.225-.281.591-.394.957-.338l3.944.62c.366.056.676.281.817.62.084.197.14.394.197.59.056.226.085.48.085.705a3.395 3.395 0 0 1-3.07 3.38c-.113.057-.226.057-.339.057zM7.953 5.07c-1.211 0-2.197.902-2.338 2.113v.479c.14 6.225 5.296 11.267 11.521 11.267h.254c1.155-.112 2.084-1.126 2.084-2.338 0-.169-.028-.338-.056-.479a1.632 1.632 0 0 0-.14-.394l-3.944-.62c-.254.282-.45.648-.507 1.043a.553.553 0 0 1-.254.366.562.562 0 0 1-.422.056c-2.902-.93-5.183-3.24-6.141-6.14A.45.45 0 0 1 8.066 10a.496.496 0 0 1 .366-.254c.395-.085.76-.253 1.043-.535l-.648-3.944c-.14-.056-.282-.112-.423-.14a1.953 1.953 0 0 0-.45-.057z" fill="#046A38" stroke="#046A38" stroke-width=".25"/>
</svg>
