<svg xmlns="http://www.w3.org/2000/svg" width="50" height="50" viewBox="0 0 50 50">
    <g fill="none" fill-rule="evenodd" opacity=".6">
        <path fill="#B1BBC0" d="M12.743 10.71a.206.206 0 0 1 .067-.273l1.062-.644a.198.198 0 0 1 .273.067l1.364 2.25 2.552-1.549-1.364-2.249a.199.199 0 0 1 .067-.272l1.062-.644a.206.206 0 0 1 .273.066l3.583 5.91a.206.206 0 0 1-.067.272l-1.062.644a.198.198 0 0 1-.273-.067l-1.423-2.347-2.553 1.547 1.423 2.348a.198.198 0 0 1-.066.273l-1.062.643a.205.205 0 0 1-.273-.066l-3.583-5.909zM26.524 12.075a2.092 2.092 0 0 0 2.328-1.804 2.103 2.103 0 0 0-1.812-2.34c-1.13-.14-2.18.686-2.321 1.826a2.09 2.09 0 0 0 1.805 2.318m.722-5.801a3.752 3.752 0 0 1 3.264 4.204 3.734 3.734 0 0 1-4.193 3.255 3.725 3.725 0 0 1-3.256-4.183 3.742 3.742 0 0 1 4.185-3.276M34.818 10.912l-1.171-.925a.199.199 0 0 1-.033-.278l.705-.893a.198.198 0 0 1 .279-.033l3.637 2.872c.09.071.098.197.033.279l-.705.893a.198.198 0 0 1-.279.032l-1.171-.925-3.455 4.376a.205.205 0 0 1-.278.032l-.983-.776a.206.206 0 0 1-.033-.278l3.454-4.376zM15.116 31.204c.07-.078.195-.079.273-.01l.196.172.482 5.76.008.007 2.446-2.783a.198.198 0 0 1 .28-.018l.94.827c.079.07.088.202.019.28l-4.639 5.276c-.068.079-.194.08-.272.01l-.126-.11a.308.308 0 0 1-.067-.129l-.361-5.834-.008-.007-2.57 2.924a.198.198 0 0 1-.28.018l-.933-.82a.205.205 0 0 1-.018-.28l4.63-5.283zM23.604 41.704a2.091 2.091 0 0 0 2.244-1.907 2.102 2.102 0 0 0-1.916-2.255c-1.134-.089-2.146.784-2.236 1.928a2.09 2.09 0 0 0 1.908 2.234m.46-5.827a3.75 3.75 0 0 1 3.449 4.052 3.732 3.732 0 0 1-4.04 3.44 3.724 3.724 0 0 1-3.441-4.03 3.742 3.742 0 0 1 4.031-3.462M28.607 36.54c-.123-.089-.123-.223-.008-.313l.958-.758c.065-.052.176-.046.238-.002l2.9 2.218.032-.026-1.01-3.885a.2.2 0 0 1 .067-.2l.148-.117c.073-.058.155-.056.21-.02l3.548 1.878.033-.026-1.491-3.332c-.029-.07-.009-.18.057-.232l.957-.757c.115-.091.245-.06.303.08l2.805 6.725a.201.201 0 0 1-.056.231l-.132.104a.213.213 0 0 1-.21.02l-4.147-2.163-.025.02 1.16 4.526a.212.212 0 0 1-.069.2l-.13.104a.2.2 0 0 1-.239.002l-5.9-4.277zM13.502 28.227c.06.206.098.31.553.31h21.729c.455 0 .493-.098.553-.31l.19-.844c.884-3.742 1.151-4.895 1.555-6.639l.2-.861-13.304 1.513a.52.52 0 0 1-.117 0l-13.303-1.513.2.86c.403 1.745.67 2.898 1.552 6.635l.192.85zm22.282 1.343H14.055c-.849 0-1.342-.34-1.55-1.073a.429.429 0 0 1-.008-.028l-.194-.859c-.881-3.734-1.149-4.887-1.553-6.633l-.24-1.036c-.068-.295-.013-.574.156-.787a.88.88 0 0 1 .707-.324c.052 0 .11.003.179.012l13.368 1.52 13.372-1.52c.065-.009.122-.012.174-.012.289 0 .54.115.707.323.17.214.225.493.156.788l-.24 1.036c-.404 1.746-.671 2.899-1.554 6.638l-.192.854-.008.028c-.21.732-.702 1.073-1.551 1.073z"/>
        <path fill="#B1BBC0" d="M24.92 1.893c-12.697 0-23.027 10.33-23.027 23.027 0 12.697 10.33 23.027 23.027 23.027 12.697 0 23.026-10.33 23.026-23.027 0-12.697-10.33-23.027-23.026-23.027m0 47.326c-13.399 0-24.3-10.9-24.3-24.3C.62 11.522 11.522.622 24.92.622c13.398 0 24.299 10.9 24.299 24.299 0 13.398-10.9 24.299-24.3 24.299"/>
        <path d="M46.061 24.92c0 11.676-9.465 21.141-21.141 21.141-11.677 0-21.142-9.465-21.142-21.141 0-11.677 9.465-21.142 21.142-21.142 11.676 0 21.141 9.465 21.141 21.142z"/>
        <path fill="#B1BBC0" fill-rule="nonzero" d="M19.07 31.746a.398.398 0 0 1 .518-.604 8.158 8.158 0 0 0 5.332 1.973c1.96 0 3.812-.69 5.28-1.928a.398.398 0 1 1 .512.607 8.952 8.952 0 0 1-5.792 2.116 8.953 8.953 0 0 1-5.85-2.164zM30.671 18.011a.398.398 0 1 1-.51.61 8.157 8.157 0 0 0-5.241-1.896c-1.943 0-3.78.678-5.243 1.897a.398.398 0 1 1-.509-.611 8.952 8.952 0 0 1 5.752-2.081c2.13 0 4.147.744 5.751 2.081z"/>
        <path fill="#B1BBC0" d="M24.92 4.175c-11.439 0-20.745 9.306-20.745 20.745 0 11.438 9.306 20.744 20.745 20.744 11.438 0 20.744-9.306 20.744-20.744 0-11.439-9.306-20.745-20.744-20.745m0 42.284c-11.877 0-21.54-9.662-21.54-21.54 0-11.876 9.663-21.538 21.54-21.538 11.876 0 21.54 9.662 21.54 21.539s-9.664 21.54-21.54 21.54"/>
    </g>
</svg>
