<svg width="14" height="18" viewBox="0 0 14 18" fill="none" xmlns="http://www.w3.org/2000/svg">
    <path d="M6.805 17.151a41.665 41.665 0 0 1-2.933-3.572c-.838-1.15-1.668-2.435-2.285-3.71C.965 8.583.58 7.353.58 6.3c0-3.12 2.74-5.719 6.224-5.719S13.03 3.18 13.03 6.3c0 1.054-.384 2.284-1.005 3.568-.618 1.276-1.447 2.56-2.286 3.711a41.668 41.668 0 0 1-2.933 3.572zM3.793 6.3c0 1.605 1.393 2.831 3.012 2.831 1.62 0 3.012-1.226 3.012-2.831 0-1.604-1.392-2.831-3.012-2.831S3.793 4.696 3.793 6.3z" stroke="#0B6A38" stroke-width="1.163" stroke-linejoin="round"/>
</svg>
