<svg width="48" height="48" viewBox="0 0 48 48" fill="none" xmlns="http://www.w3.org/2000/svg">
    <mask id="7jloylgana" style="mask-type:alpha" maskUnits="userSpaceOnUse" x="12" y="12" width="24" height="24">
        <path d="m35.118 33.323-5.64-5.647c2.835-3.692 2.552-9.024-.852-12.4a9.369 9.369 0 0 0-6.68-2.776 9.369 9.369 0 0 0-6.68 2.776c-3.688 3.692-3.688 9.686 0 13.378a9.368 9.368 0 0 0 6.68 2.776c2.016 0 4.033-.631 5.703-1.924l5.673 5.615c.252.253.567.379.913.379.316 0 .662-.126.914-.379.473-.473.473-1.293-.031-1.798zm-13.14-4.448c-1.86 0-3.562-.726-4.885-2.02-2.679-2.681-2.679-7.067 0-9.78a6.858 6.858 0 0 1 4.884-2.02c1.86 0 3.561.726 4.885 2.02 1.323 1.293 2.016 3.029 2.016 4.89 0 1.861-.724 3.565-2.016 4.89-1.292 1.325-3.057 2.02-4.885 2.02z" fill="#fff"/>
    </mask>
    <g mask="url(#7jloylgana)">
        <path d="m35.118 33.323-5.64-5.647c2.835-3.692 2.552-9.024-.852-12.4a9.369 9.369 0 0 0-6.68-2.776 9.369 9.369 0 0 0-6.68 2.776c-3.688 3.692-3.688 9.686 0 13.378a9.368 9.368 0 0 0 6.68 2.776c2.016 0 4.033-.631 5.703-1.924l5.673 5.615c.252.253.567.379.913.379.316 0 .662-.126.914-.379.473-.473.473-1.293-.031-1.798zm-13.14-4.448c-1.86 0-3.562-.726-4.885-2.02-2.679-2.681-2.679-7.067 0-9.78a6.858 6.858 0 0 1 4.884-2.02c1.86 0 3.561.726 4.885 2.02 1.323 1.293 2.016 3.029 2.016 4.89 0 1.861-.724 3.565-2.016 4.89-1.292 1.325-3.057 2.02-4.885 2.02z" fill="#0B6A38"/>
    </g>
</svg>
